<?xml version="1.0" standalone="no"?>
<!DOCTYPE svg PUBLIC "-//W3C//DTD SVG 20010904//EN"
 "http://www.w3.org/TR/2001/REC-SVG-20010904/DTD/svg10.dtd">
<svg version="1.0" xmlns="http://www.w3.org/2000/svg"
 width="144.000000pt" height="144.000000pt" viewBox="0 0 144.000000 144.000000"
 preserveAspectRatio="xMidYMid meet">

<g transform="translate(0.000000,144.000000) scale(0.100000,-0.100000)"
fill="#e5726c" stroke="none">
<path d="M315 1430 c-85 -9 -160 -44 -214 -100 -88 -91 -101 -168 -101 -615 0
-449 13 -520 110 -614 91 -88 168 -101 615 -101 449 0 520 13 614 110 88 91
101 168 101 615 0 449 -13 520 -110 614 -58 56 -116 80 -223 91 -105 11 -687
11 -792 0z m578 -377 c88 -42 159 -110 199 -190 41 -84 50 -201 23 -284 -24
-72 -119 -168 -189 -192 -74 -25 -179 -22 -242 7 -101 47 -177 143 -190 239
l-7 47 -85 0 -85 0 7 58 c13 113 95 235 199 297 70 40 131 55 222 52 66 -3 93
-9 148 -34z"/>
<path d="M733 811 c-116 -73 -79 -250 56 -268 146 -20 227 150 121 252 -40 39
-128 47 -177 16z"/>
</g>
</svg>
